# xmcd
#
# Track frame offsets: 
#        150
#        16600
#        35242
#        60342
#        89930
#
# Disc length: 1636 seconds
#
# Revision: 2
# Processed by: cddbd v1.5.1PL0 Copyright (c) Steve Scherf et al.
# Submitted via: ExactAudioCopy v0.95a5
#
DISCID=3a066205
DTITLE=Culture Beat - Got To Get It [US Version]
DYEAR=1994
DGENRE=Eurodance
TTITLE0=Got To Get It [Radio Mix]
TTITLE1=Got To Get It [Radio Remix]
TTITLE2=Got To Get It [Raw Deal Mix]
TTITLE3=Got To Get It [Funlab Mix]
TTITLE4=Got To Get It [Hypnotic Mix]
EXTD=YEAR: 1994 ID3G: 18
EXTT0=
EXTT1=
EXTT2=
EXTT3=
EXTT4=
PLAYORDER=
